<?xml version="1.0" encoding="utf-8"?>
<svg version="1.1" id="Ebene_1" x="0px" y="0px" viewBox="0 0 42.5 42.5" style="enable-background:new 0 0 42.5 42.5;" xmlns="http://www.w3.org/2000/svg">
  <path d="M 34.5 11.2 C 34.9 11.6 35.2 12 35.4 12.6 C 35.7 13.2 35.8 13.8 35.8 14.3 L 35.8 36.2 C 35.8 36.7 35.6 37.1 35.3 37.5 C 34.9 37.8 34.5 38 34 38 L 8.5 38 C 8 38 7.6 37.8 7.2 37.5 C 6.8 37.1 6.7 36.7 6.7 36.2 L 6.7 5.8 C 6.7 5.3 6.9 4.9 7.2 4.5 C 7.5 4.2 7.9 4 8.5 4 L 25.5 4 C 26 4 26.6 4.1 27.2 4.4 C 27.8 4.7 28.3 5 28.6 5.3 L 34.5 11.2 Z M 26.1 6.6 L 26.1 13.7 L 33.2 13.7 C 33.1 13.3 32.9 13.1 32.8 12.9 L 26.8 7 C 26.7 6.8 26.4 6.7 26.1 6.6 Z M 33.4 35.6 L 33.4 16.2 L 25.5 16.2 C 25 16.2 24.6 16 24.2 15.7 C 23.8 15.3 23.7 14.9 23.7 14.4 L 23.7 6.4 L 9.1 6.4 L 9.1 35.6 L 33.4 35.6 Z"/>
  <path d="M 24.005 21.602 L 22.697 21.602 L 22.697 18.604 C 22.697 16.478 20.952 14.788 18.771 14.788 C 16.591 14.788 14.846 16.478 14.846 18.604 L 14.846 21.602 L 13.593 21.602 C 12.394 21.602 11.412 22.584 11.412 23.783 L 11.412 31.143 C 11.412 32.342 12.394 33.323 13.593 33.323 L 24.005 33.323 C 25.204 33.323 26.186 32.342 26.186 31.143 L 26.186 23.783 C 26.186 22.584 25.204 21.602 24.005 21.602 Z M 16.319 18.604 C 16.319 17.295 17.409 16.205 18.771 16.205 C 20.134 16.205 21.225 17.295 21.225 18.604 L 21.225 21.602 L 16.319 21.602 L 16.319 18.604 Z M 24.714 31.143 C 24.714 31.525 24.387 31.851 24.005 31.851 L 13.593 31.851 C 13.211 31.851 12.884 31.525 12.884 31.143 L 12.884 23.783 C 12.884 23.402 13.211 23.074 13.593 23.074 L 24.005 23.074 C 24.387 23.074 24.714 23.402 24.714 23.783 L 24.714 31.143 Z" style=""/>
  <path d="M 18.771 25.146 C 18.008 25.146 17.409 25.746 17.409 26.509 C 17.409 26.999 17.627 27.381 18.008 27.653 L 18.008 29.235 C 18.008 29.617 18.336 29.943 18.717 29.943 C 19.099 29.943 19.426 29.617 19.426 29.235 L 19.426 27.653 C 19.808 27.436 20.026 26.999 20.026 26.509 C 20.134 25.746 19.535 25.146 18.771 25.146 Z" style=""/>
</svg>