<?xml version="1.0" encoding="utf-8"?>
<!-- Generator: Adobe Illustrator 28.2.0, SVG Export Plug-In . SVG Version: 6.00 Build 0)  -->
<svg version="1.1" id="Ebene_1" xmlns="http://www.w3.org/2000/svg" xmlns:xlink="http://www.w3.org/1999/xlink" x="0px" y="0px"
	 viewBox="0 0 42.5 42.5" style="enable-background:new 0 0 42.5 42.5;" xml:space="preserve">
<path d="M39,27.4c0,0,0,2.6,0,3.9c-1.8,0-4.9,0-4.9,0s0-15.4,0-22.5c0-2.8-1.6-4.5-4.5-4.5c-7.9,0-15.8,0-23.7,0
	c-2.8,0-4.4,1.7-4.4,4.5c0,8.1,0,24.5,0,24.5l5.8,0c0.1,2.7,2.4,4.9,5.1,4.9c2.8,0,5-2.2,5.2-4.9l23.3,0v-5.9H39z M12.5,36.5
	c-1.8,0-3.3-1.4-3.4-3.2c0-0.1,0-0.2,0-0.2c0-0.6,0.2-1.2,0.5-1.7c0.6-1,1.7-1.8,3-1.8s2.4,0.7,3,1.8c0.3,0.5,0.5,1.1,0.5,1.7
	c0,0.1,0,0.2,0,0.2C15.8,35.1,14.3,36.5,12.5,36.5z M32.1,31.4c-0.5,0-9.2,0-14.7,0c-0.7-2-2.6-3.5-4.9-3.5s-4.2,1.5-4.9,3.5
	c-2.3,0-4.1,0-4.1,0s0-15.3,0-22.5c0-1.5,1.1-2.6,2.6-2.6c7.8,0,15.6,0,23.3,0c1.5,0,2.6,1.2,2.6,2.6c0,7.2,0,14.4,0,21.6
	C32.1,30.7,32.1,31,32.1,31.4z"/>
<path d="M28.5,12.5c-7.3,0-14.4,0-21.7,0c0,3.1,0,6.2,0,9.4c7.2,0,14.4,0,21.7,0C28.5,18.7,28.5,15.6,28.5,12.5z M26.6,19.8
	c-5.9,0-11.8,0-17.8,0c0-1.5,0-3.8,0-5.3c5.9,0,11.8,0,17.8,0C26.6,15.9,26.6,18.3,26.6,19.8z"/>
</svg>
