<?xml version="1.0" encoding="utf-8"?>
<!-- Generator: Adobe Illustrator 28.2.0, SVG Export Plug-In . SVG Version: 6.00 Build 0)  -->
<svg version="1.1" id="Ebene_1" xmlns="http://www.w3.org/2000/svg" xmlns:xlink="http://www.w3.org/1999/xlink" x="0px" y="0px"
	 viewBox="0 0 42.5 42.5" style="enable-background:new 0 0 42.5 42.5;" xml:space="preserve">
<path d="M13.1,18.8v4.9c0,0.7-0.2,1.3-0.7,1.7c-0.5,0.5-1,0.7-1.7,0.7H5.8c-0.7,0-1.3-0.2-1.7-0.7c-0.5-0.5-0.7-1-0.7-1.7v-4.9
	c0-0.7,0.2-1.3,0.7-1.7c0.5-0.5,1-0.7,1.7-0.7h4.9c0.7,0,1.3,0.2,1.7,0.7C12.9,17.6,13.1,18.1,13.1,18.8z M26.1,18.8v4.9
	c0,0.7-0.2,1.3-0.7,1.7c-0.5,0.5-1,0.7-1.7,0.7h-4.9c-0.7,0-1.3-0.2-1.7-0.7c-0.5-0.5-0.7-1-0.7-1.7v-4.9c0-0.7,0.2-1.3,0.7-1.7
	c0.5-0.5,1-0.7,1.7-0.7h4.9c0.7,0,1.3,0.2,1.7,0.7C25.9,17.6,26.1,18.1,26.1,18.8z M39.1,18.8v4.9c0,0.7-0.2,1.3-0.7,1.7
	c-0.5,0.5-1,0.7-1.7,0.7h-4.9c-0.7,0-1.3-0.2-1.7-0.7c-0.5-0.5-0.7-1-0.7-1.7v-4.9c0-0.7,0.2-1.3,0.7-1.7c0.5-0.5,1-0.7,1.7-0.7h4.9
	c0.7,0,1.3,0.2,1.7,0.7C38.9,17.6,39.1,18.1,39.1,18.8z"/>
</svg>
