<?xml version="1.0" encoding="utf-8"?>
<!-- Generator: Adobe Illustrator 28.2.0, SVG Export Plug-In . SVG Version: 6.00 Build 0)  -->
<svg version="1.1" id="Ebene_1" xmlns="http://www.w3.org/2000/svg" xmlns:xlink="http://www.w3.org/1999/xlink" x="0px" y="0px"
	 viewBox="0 0 42.5 42.5" style="enable-background:new 0 0 42.5 42.5;" xml:space="preserve">
<path d="M23.7,13.1h-4.9c-0.7,0-1.3-0.2-1.7-0.7c-0.5-0.5-0.7-1-0.7-1.7V5.8c0-0.7,0.2-1.3,0.7-1.7c0.5-0.5,1-0.7,1.7-0.7h4.9
	c0.7,0,1.3,0.2,1.7,0.7c0.5,0.5,0.7,1,0.7,1.7v4.9c0,0.7-0.2,1.3-0.7,1.7C24.9,12.9,24.4,13.1,23.7,13.1z M23.7,26.1h-4.9
	c-0.7,0-1.3-0.2-1.7-0.7c-0.5-0.5-0.7-1-0.7-1.7v-4.9c0-0.7,0.2-1.3,0.7-1.7c0.5-0.5,1-0.7,1.7-0.7h4.9c0.7,0,1.3,0.2,1.7,0.7
	c0.5,0.5,0.7,1,0.7,1.7v4.9c0,0.7-0.2,1.3-0.7,1.7C24.9,25.9,24.4,26.1,23.7,26.1z M23.7,39.1h-4.9c-0.7,0-1.3-0.2-1.7-0.7
	c-0.5-0.5-0.7-1-0.7-1.7v-4.9c0-0.7,0.2-1.3,0.7-1.7c0.5-0.5,1-0.7,1.7-0.7h4.9c0.7,0,1.3,0.2,1.7,0.7c0.5,0.5,0.7,1,0.7,1.7v4.9
	c0,0.7-0.2,1.3-0.7,1.7C24.9,38.9,24.4,39.1,23.7,39.1z"/>
</svg>
