<?xml version="1.0" encoding="utf-8"?>
<!-- Generator: Adobe Illustrator 28.2.0, SVG Export Plug-In . SVG Version: 6.00 Build 0)  -->
<svg version="1.1" id="Ebene_1" xmlns="http://www.w3.org/2000/svg" xmlns:xlink="http://www.w3.org/1999/xlink" x="0px" y="0px"
	 viewBox="0 0 42.5 42.5" style="enable-background:new 0 0 42.5 42.5;" xml:space="preserve">
<path d="M11.3,13.3v15.9c0,0.2-0.1,0.4-0.3,0.6c-0.2,0.2-0.4,0.3-0.6,0.3c-0.3,0-0.5-0.1-0.6-0.2l-8-8c-0.2-0.2-0.2-0.4-0.2-0.6
	s0.1-0.5,0.2-0.6l8-8c0.2-0.2,0.4-0.2,0.6-0.2c0.2,0,0.4,0.1,0.6,0.3C11.2,12.9,11.3,13.1,11.3,13.3z M41,27.9v4.4
	c0,0.2-0.1,0.4-0.2,0.5S40.4,33,40.2,33H15.5c-0.2,0-0.4-0.1-0.5-0.2c-0.1-0.1-0.2-0.3-0.2-0.5v-4.4c0-0.2,0.1-0.4,0.2-0.5
	c0.1-0.1,0.3-0.2,0.5-0.2h24.8c0.2,0,0.4,0.1,0.5,0.2C40.9,27.5,41,27.7,41,27.9z M41,19.1v4.4c0,0.2-0.1,0.4-0.2,0.5
	c-0.1,0.1-0.3,0.2-0.5,0.2H15.5c-0.2,0-0.4-0.1-0.5-0.2c-0.1-0.1-0.2-0.3-0.2-0.5v-4.4c0-0.2,0.1-0.4,0.2-0.5
	c0.1-0.1,0.3-0.2,0.5-0.2h24.8c0.2,0,0.4,0.1,0.5,0.2S41,18.9,41,19.1z M41,10.3v4.4c0,0.2-0.1,0.4-0.2,0.5s-0.3,0.2-0.5,0.2H15.5
	c-0.2,0-0.4-0.1-0.5-0.2c-0.1-0.1-0.2-0.3-0.2-0.5v-4.4c0-0.2,0.1-0.4,0.2-0.5c0.1-0.1,0.3-0.2,0.5-0.2h24.8c0.2,0,0.4,0.1,0.5,0.2
	C40.9,9.9,41,10.1,41,10.3z"/>
</svg>
