<?xml version="1.0" encoding="utf-8"?>
<!-- Generator: Adobe Illustrator 28.2.0, SVG Export Plug-In . SVG Version: 6.00 Build 0)  -->
<svg version="1.1" id="Ebene_1" xmlns="http://www.w3.org/2000/svg" xmlns:xlink="http://www.w3.org/1999/xlink" x="0px" y="0px"
	 viewBox="0 0 42.5 42.5" style="enable-background:new 0 0 42.5 42.5;" xml:space="preserve">
<path d="M31.5,12.7c0.2-0.2,0.4-0.3,0.6-0.3c0.3,0,0.5,0.1,0.6,0.2l8,8c0.2,0.2,0.2,0.4,0.2,0.6s-0.1,0.5-0.2,0.6l-8,8
	c-0.2,0.2-0.4,0.2-0.6,0.2c-0.2,0-0.4-0.1-0.6-0.3c-0.2-0.2-0.3-0.4-0.3-0.6V13.3C31.2,13.1,31.3,12.9,31.5,12.7z M1.8,27.4
	c0.1-0.1,0.3-0.2,0.5-0.2H27c0.2,0,0.4,0.1,0.5,0.2c0.1,0.1,0.2,0.3,0.2,0.5v4.4c0,0.2-0.1,0.4-0.2,0.5S27.2,33,27,33H2.3
	c-0.2,0-0.4-0.1-0.5-0.2s-0.2-0.3-0.2-0.5v-4.4C1.6,27.7,1.6,27.5,1.8,27.4z M1.8,18.6c0.1-0.1,0.3-0.2,0.5-0.2H27
	c0.2,0,0.4,0.1,0.5,0.2s0.2,0.3,0.2,0.5v4.4c0,0.2-0.1,0.4-0.2,0.5c-0.1,0.1-0.3,0.2-0.5,0.2H2.3c-0.2,0-0.4-0.1-0.5-0.2
	c-0.1-0.1-0.2-0.3-0.2-0.5v-4.4C1.6,18.9,1.6,18.8,1.8,18.6z M1.8,9.7c0.1-0.1,0.3-0.2,0.5-0.2H27c0.2,0,0.4,0.1,0.5,0.2
	c0.1,0.1,0.2,0.3,0.2,0.5v4.4c0,0.2-0.1,0.4-0.2,0.5s-0.3,0.2-0.5,0.2H2.3c-0.2,0-0.4-0.1-0.5-0.2s-0.2-0.3-0.2-0.5v-4.4
	C1.6,10.1,1.6,9.9,1.8,9.7z"/>
</svg>
